<svg xmlns="http://www.w3.org/2000/svg" xmlns:xlink="http://www.w3.org/1999/xlink" width="500" zoomAndPan="magnify" viewBox="0 0 375 374.999991" height="500" preserveAspectRatio="xMidYMid meet" version="1.0"><defs><clipPath id="609d4a2068"><path d="M 187.019531 219.792969 L 337.019531 219.792969 L 337.019531 369.792969 L 187.019531 369.792969 Z M 187.019531 219.792969 " clip-rule="nonzero"/></clipPath></defs><path fill="#100f0d" d="M 72.84375 232.015625 C 58.992188 176.46875 152.527344 104.117188 152.527344 104.117188 C 147.980469 122.679688 156.582031 145.128906 156.859375 145.832031 C 153.289062 87.328125 176.902344 80.925781 176.902344 80.925781 C 197.160156 70.761719 228.929688 44.453125 228.929688 44.453125 C 213.371094 78.53125 221.550781 96.03125 221.820312 96.566406 C 221.820312 96.519531 221.808594 96.484375 221.804688 96.4375 C 219.746094 75.757812 241.640625 42.046875 241.640625 42.046875 C 295.605469 -0.00390625 356.742188 11.335938 356.742188 11.335938 C 357.25 38.183594 301.449219 110.890625 301.449219 110.890625 C 277.832031 126.597656 241.097656 114.414062 241.097656 114.414062 C 241.164062 114.464844 241.226562 114.515625 241.308594 114.558594 C 258.226562 126.542969 285.832031 126.472656 286.703125 126.46875 C 263.195312 135.441406 217.84375 188.707031 217.84375 188.707031 C 208.988281 199.402344 201.527344 202.878906 201.527344 202.878906 C 178.058594 216.210938 145.070312 209.125 145.070312 209.125 C 160.878906 220.230469 194.019531 214.738281 195.050781 214.566406 C 188.019531 218.046875 159.78125 249.789062 159.78125 249.789062 C 137.222656 274.96875 120.152344 273.261719 120.152344 273.261719 C 101.253906 275.5625 86.75 287.589844 86.75 287.589844 C 100.484375 286.769531 112.167969 295.167969 112.167969 295.167969 C 94.707031 290.144531 72.367188 302.289062 71.667969 302.675781 C 85.113281 300.824219 89.621094 307.527344 89.621094 307.527344 C 80.753906 304.984375 63.84375 316.234375 63.84375 316.234375 C 59.164062 319.929688 55.085938 321.824219 51.886719 322.769531 C 56.964844 311.519531 62.625 300.417969 68.722656 289.488281 C 76.910156 274.828125 85.910156 260.46875 95.621094 246.460938 C 105.382812 232.472656 115.851562 218.851562 126.84375 205.542969 L 135.238281 195.660156 C 138.03125 192.363281 141.003906 189.191406 143.882812 185.945312 L 148.230469 181.105469 C 149.671875 179.484375 151.214844 177.933594 152.699219 176.347656 L 161.699219 166.875 C 173.992188 154.476562 186.511719 142.234375 199.746094 130.621094 C 226.023438 107.222656 254.015625 85.394531 283.289062 65.160156 C 253.578125 84.820312 225.058594 106.132812 198.160156 129.105469 C 184.613281 140.503906 171.757812 152.5625 159.109375 164.796875 L 149.839844 174.152344 C 148.304688 175.722656 146.71875 177.253906 145.230469 178.855469 L 140.738281 183.648438 C 137.769531 186.859375 134.695312 190.003906 131.804688 193.273438 L 123.109375 203.078125 C 111.714844 216.285156 100.820312 229.847656 90.617188 243.8125 C 80.460938 257.804688 71 272.183594 62.328125 286.917969 C 55.4375 298.644531 49.050781 310.59375 43.3125 322.769531 C 43.0625 323.367188 42.804688 323.957031 42.558594 324.554688 C 39.382812 332.15625 36.535156 339.832031 33.996094 347.539062 C 32.710938 351.390625 31.558594 355.257812 30.472656 359.125 C 29.953125 361.058594 29.425781 362.992188 28.972656 364.921875 C 28.742188 365.882812 28.507812 366.847656 28.308594 367.800781 C 28.09375 368.742188 27.890625 369.75 27.742188 370.582031 L 27.71875 370.699219 L 27.703125 370.773438 C 27.210938 373.203125 24.667969 375.007812 22.03125 374.800781 C 19.390625 374.597656 17.65625 372.457031 18.152344 370.027344 C 18.390625 368.875 18.621094 367.894531 18.875 366.855469 C 19.117188 365.824219 19.390625 364.816406 19.660156 363.800781 C 20.191406 361.773438 20.785156 359.769531 21.378906 357.761719 C 22.601562 353.761719 23.898438 349.78125 25.316406 345.835938 C 28.125 337.945312 31.234375 330.132812 34.667969 322.421875 C 35.226562 321.148438 35.792969 319.886719 36.367188 318.625 C 25.78125 305.460938 39.5 273.0625 39.5 273.0625 C 40.402344 284.917969 49.714844 286.550781 49.714844 286.550781 C 42.996094 271.566406 53.4375 252.140625 53.4375 252.140625 C 63.773438 230.15625 54.132812 216.066406 54.132812 216.066406 C 65.382812 219.703125 72.515625 231.484375 72.84375 232.015625 " fill-opacity="1" fill-rule="nonzero"/><g clip-path="url(#609d4a2068)"><path fill="#212121" d="M 262.019531 325.726562 C 244.933594 325.726562 231.085938 311.878906 231.085938 294.792969 C 231.085938 277.710938 244.933594 263.863281 262.019531 263.863281 C 279.101562 263.863281 292.949219 277.710938 292.949219 294.792969 C 292.949219 311.878906 279.101562 325.726562 262.019531 325.726562 Z M 332.96875 280.332031 L 319.121094 278.691406 C 317.867188 274.242188 316.09375 269.910156 313.785156 265.796875 L 322.414062 254.851562 C 323.855469 253.023438 323.699219 250.410156 322.054688 248.765625 L 308.046875 234.757812 C 306.402344 233.113281 303.789062 232.957031 301.960938 234.398438 L 291.015625 243.027344 C 286.898438 240.71875 282.566406 238.945312 278.121094 237.691406 L 276.480469 223.84375 C 276.207031 221.535156 274.25 219.792969 271.921875 219.792969 L 252.113281 219.792969 C 249.785156 219.792969 247.828125 221.535156 247.554688 223.84375 L 245.917969 237.691406 C 241.46875 238.945312 237.136719 240.71875 233.019531 243.027344 L 222.074219 234.398438 C 220.25 232.957031 217.632812 233.113281 215.988281 234.757812 L 201.980469 248.765625 C 200.335938 250.410156 200.179688 253.023438 201.621094 254.851562 L 210.25 265.796875 C 207.941406 269.910156 206.164062 274.242188 204.917969 278.691406 L 191.066406 280.332031 C 188.757812 280.605469 187.019531 282.5625 187.019531 284.886719 L 187.019531 304.699219 C 187.019531 307.027344 188.757812 308.984375 191.066406 309.257812 L 204.917969 310.894531 C 206.164062 315.34375 207.941406 319.675781 210.25 323.792969 L 201.621094 334.738281 C 200.179688 336.5625 200.335938 339.179688 201.980469 340.820312 L 215.988281 354.832031 C 217.632812 356.476562 220.25 356.628906 222.074219 355.191406 L 233.019531 346.5625 C 237.136719 348.871094 241.46875 350.644531 245.917969 351.894531 L 247.554688 365.746094 C 247.828125 368.054688 249.785156 369.792969 252.113281 369.792969 L 271.59375 369.792969 C 273.878906 369.792969 275.816406 368.113281 276.136719 365.851562 L 278.121094 351.894531 C 282.566406 350.644531 286.898438 348.871094 291.015625 346.5625 L 301.960938 355.191406 C 303.789062 356.628906 306.402344 356.476562 308.046875 354.832031 L 322.054688 340.820312 C 323.699219 339.179688 323.855469 336.5625 322.414062 334.738281 L 313.785156 323.792969 C 316.09375 319.675781 317.867188 315.34375 319.121094 310.894531 L 332.96875 309.257812 C 335.277344 308.984375 337.019531 307.027344 337.019531 304.699219 L 337.019531 284.886719 C 337.019531 282.5625 335.277344 280.605469 332.96875 280.332031 " fill-opacity="1" fill-rule="nonzero"/></g></svg>